PathFileType	4	(X/Y/Z)	path1_10_0-575.trc
DataRate	CameraRate	NumFrames	NumMarkers	Units	OrigDataRate	OrigDataStartFrame	OrigNumFrames
30	30	9	22	m	30	359	575
Frame#	Time	Hip			RHip			RKnee			RAnkle			RBigToe			RSmallToe			RHeel			LHip			LKnee			LAnkle			LBigToe			LSmallToe			LHeel			Neck			Head			Nose			RShoulder			RElbow			RWrist			LShoulder			LElbow			LWrist		
		X1	Y1	Z1	X2	Y2	Z2	X3	Y3	Z3	X4	Y4	Z4	X5	Y5	Z5	X6	Y6	Z6	X7	Y7	Z7	X8	Y8	Z8	X9	Y9	Z9	X10	Y10	Z10	X11	Y11	Z11	X12	Y12	Z12	X13	Y13	Z13	X14	Y14	Z14	X15	Y15	Z15	X16	Y16	Z16	X17	Y17	Z17	X18	Y18	Z18	X19	Y19	Z19	X20	Y20	Z20	X21	Y21	Z21	X22	Y22	Z22
360	12.0	2.4685537815786343	0.8302472349764712	0.7580503784505412	2.4825182107479935	0.8058854260650743	0.6707309146540915	2.481035752484381	0.43852568350780624	0.674924286542324	2.5723818850182183	0.09900898845450072	0.7207331473472717	2.396207667661059	0.025165166854098968	0.7213511874793511	2.432700984355893	0.01815973336232205	0.6632605346510588	2.625112266672667	0.03334364952960893	0.7338924279307962	2.4283675055113756	0.8149477570954314	0.8408251858760939	2.285067496490574	0.4961966760652394	0.855576864490486	2.3031038987037995	0.14082747743978263	0.8608342646177706	2.1110043871292126	0.06555988361494909	0.8861052981672868	2.1392919067894653	0.06075597205683011	0.9440745304123974	2.3403550915080515	0.0655419828745705	0.8569499934703088	2.3827050077395517	1.441459791551471	0.7487244549156793	2.282147103702127	1.6734793036667772	0.7336998810058412	2.230529864352907	1.563885623675373	0.7455940400995207	2.4116772972206424	1.342425435580795	0.5689107177962929	2.4068351090325777	1.039813772377836	0.5345938317182877	2.3719281548973883	0.8072931996120036	0.5166014766922952	2.4390626644797226	1.3584943885753247	0.8984756352109792	2.501877496442451	1.0641734458775016	0.9211694478725534	2.5299507336391787	0.8338396345059156	0.9197070259175729
361	12.033333333333331	2.456593753335639	0.8289327572749643	0.7585892718066821	2.4706482117035446	0.8042137277672163	0.6725403283217748	2.4767762458883804	0.43778096412786704	0.676158462010695	2.57114199161754	0.0987772403501831	0.7204628528888546	2.3981797356784282	0.024158260011858255	0.7249323097584658	2.4322654127205072	0.017126170581952652	0.6646980048217576	2.625872726268648	0.033736206483606944	0.7366552539272647	2.4164286910427526	0.813335838964112	0.8425873497896084	2.271935038926516	0.49380563717817527	0.8554350942143715	2.25912972964726	0.14030916384636682	0.8605031236234502	2.0632916077794814	0.07477711128544606	0.8848175513321312	2.090066616645077	0.06519702701621416	0.9449580897828296	2.293126303480752	0.06139012545229738	0.8569577401884025	2.368881629690463	1.439897618820184	0.7492384803419425	2.2719013996781006	1.6792486537274938	0.7347746952764499	2.2144377857220845	1.5607407154338897	0.7463534732946164	2.3959701669596605	1.3421648706267724	0.5692474392242967	2.384243057553362	1.0383193075878707	0.5350849224472389	2.3382007254677397	0.8066004907089481	0.5152117651554967	2.4255693350304375	1.3575811319487594	0.907817338602306	2.4878422266032976	1.0650947399146409	0.9265714870895081	2.5249776075382413	0.8343580811605569	0.925228057126733
362	12.066666666666666	2.441951771554793	0.8272740359254961	0.7595652118176698	2.456864496238747	0.8019560599344511	0.6742868393155144	2.470762879760884	0.4393496721005069	0.6783502467348481	2.5701002978742618	0.09895980802718299	0.7201270276453176	2.3997251897152316	0.022599067428592273	0.7269412920361635	2.4322704198049445	0.015252838296386339	0.6664326444388509	2.626595467025955	0.0342966623096054	0.7382670721130942	2.4011208133307362	0.810755606599374	0.844306458961521	2.258235727596689	0.49095642002412426	0.8563054061581467	2.2189090525122905	0.14002602826628635	0.8609560733376026	2.0229063381215666	0.08277344285005472	0.883761565826841	2.0477274564561947	0.0698197846447572	0.94486393223166	2.2496335553765694	0.05887662977631401	0.8562293984211227	2.3539761672997677	1.4383477790551173	0.7503784170660392	2.2615988136653096	1.6854376226323688	0.7361306169003119	2.1962987109393906	1.5572338857026233	0.7476671707400123	2.379289813619269	1.3416141499859242	0.5704159174000675	2.3601118113389514	1.03722809946903	0.5360456839210991	2.3021858200046177	0.8071009398846848	0.5148383037039431	2.4104046005532096	1.3560867407368653	0.918055129703207	2.472750207907471	1.0653041329422357	0.9320633097128812	2.5163871655619303	0.8339661511368621	0.93184762065945
363	12.1	2.424469284514519	0.8253309371355818	0.7611382713732635	2.4412750177572407	0.799352633889779	0.6761942891664376	2.463370966505005	0.44298482526600735	0.6812937962980247	2.569291165661224	0.09977685790858068	0.7204773962882538	2.4016781457563297	0.020512697935913843	0.7282112326992661	2.4336816477344216	0.012203692511292538	0.6697977797293665	2.6269877362455687	0.034888463757331505	0.7387878526455817	2.382272005542862	0.8075457106439766	0.8460898146705578	2.243553499813121	0.488041638321164	0.8581565553545786	2.1839297298962976	0.13988221886249402	0.861570504797927	1.990682534797493	0.08783336647984541	0.8827577587682824	2.013388225143939	0.07359213607648804	0.9437995426210489	2.2118009217797736	0.0578939340013292	0.8548619959470314	2.3380676840530663	1.4366583470643508	0.7521503196488072	2.2504253885967067	1.691190149812682	0.7374338573084458	2.176154294295201	1.5533364598671937	0.749570329361132	2.361641676528342	1.3407650056270182	0.5723051393807371	2.334892229504671	1.0366089512115313	0.5373747824533495	2.2647837492722473	0.808975389521082	0.5154805775384931	2.3936257422950584	1.3542179174160283	0.9272588814549264	2.457757851785847	1.0648891737872253	0.9366723728216998	2.504503585413103	0.8333795798231536	0.9388209849429232
364	12.133333333333333	2.4043475119386777	0.8231693030054852	0.7632623673471973	2.423802165756983	0.7966806454360572	0.6783691873689488	2.454550177196029	0.44767020078254866	0.6843654284568693	2.568630935028136	0.10097550412254101	0.7213845373425553	2.4046937460812376	0.018032665282585104	0.7299139790359782	2.4361203612168505	0.008106712726617222	0.6753620345128141	2.627038546607795	0.03531263071836859	0.7383021689670705	2.360592585515697	0.8040322176755967	0.8480525763451601	2.2277059788046154	0.48524206098922984	0.8607742673227183	2.1550796007285653	0.13939476445686572	0.8618822222033926	1.9659836554064443	0.0885157266002032	0.8816102759715567	1.98705273908383	0.07533912394026568	0.9419074529945464	2.1808062753679356	0.057706526510233	0.8531477550621743	2.321132171203678	1.4347762993414932	0.7546575877393338	2.23758990860598	1.6954101341155154	0.7387613133833333	2.1548302318598935	1.549338357745498	0.752108641815719	2.3429711981264094	1.3397373912509496	0.5747805403332062	2.3090453700911864	1.0364209187168218	0.5389867977314409	2.226938654118065	0.812058829429992	0.5171943402497695	2.3755914182328626	1.3522921444516833	0.9352236519250324	2.443593772761511	1.0640123755595206	0.9400082570207282	2.4898163954369736	0.8331366966756527	0.9454760008588182
365	12.166666666666666	2.3820025116394508	0.8209376084961447	0.765830210191241	2.4043209341007645	0.7942834233228239	0.6808501883517923	2.443871138937441	0.4521055618069337	0.6867853893468339	2.567852336308925	0.10230699099518084	0.7221992810323841	2.4082223663689266	0.015643193145158402	0.7326869771027297	2.4381643826634143	0.0037790934693990017	0.6828226307980243	2.6266748163247637	0.03560712062541976	0.7368105999598327	2.3370038904972597	0.800651741371508	0.8502710170745098	2.2107099073071788	0.4826922746382123	0.8636366257914573	2.1325026424442264	0.13805388574092628	0.8616533680526001	1.947551590877985	0.08434918030150396	0.8802557637487329	1.968064900468139	0.0742148959899202	0.9394505902239298	2.157003036812388	0.05755004158524439	0.8513756167485141	2.303125289589354	1.4328197088773327	0.7580656907276376	2.222362342641774	1.6970301890773525	0.7405533667216464	2.1341465927055245	1.5460733323665823	0.7554958744088919	2.3232249075744904	1.3387785932954026	0.5778617802133795	2.283024480305766	1.0366365146307832	0.5408261563933611	2.189575231231358	0.8160386500825124	0.5200186341251295	2.3566934794343584	1.3506098464601248	0.9428959528318294	2.429836498164593	1.0628939718059731	0.9423586105537948	2.473373027587394	0.8334675126554133	0.9512835203635399
366	12.2	2.357929377581507	0.8189321238868763	0.7687838390198304	2.382812137871423	0.7925462284935635	0.6836798279813209	2.4307536272365566	0.45556478711781306	0.6882420574393763	2.566444555568197	0.10395924641126757	0.7223075631812104	2.410864952209619	0.014126831601636958	0.7363607171928706	2.4385546397113123	0.00042642864372800695	0.6910323435398561	2.62540110658848	0.036230152682703125	0.7341733972121294	2.3120651343725287	0.7979572804868018	0.8527882344565825	2.1926408071471526	0.48060130405698565	0.8659900325862693	2.1156133076439287	0.1356568600269471	0.8608406009366771	1.9339075846361127	0.07605749882133303	0.878610321662796	1.955379738312029	0.06981770581132093	0.9368843293167084	2.1399426999295432	0.05704477349914766	0.8496925177468575	2.28402043416559	1.4310740168108556	0.7624663431078157	2.2044312898319935	1.695500052790845	0.7434019091954799	2.1156907119771313	1.5444097819649254	0.7601058443473269	2.3024163271352407	1.3382583014505152	0.5817809788658124	2.2572295650021568	1.037397218823345	0.54294877369828	2.153598476982189	0.8206347259103153	0.5239923190136182	2.336970203305756	1.349294939144666	0.9505737547464688	2.415108612716024	1.0618189138186387	0.9444572827019931	2.4568864025715658	0.8341852926727148	0.9559935373603144
367	12.233333333333333	2.332644913830759	0.8175586978118995	0.7721425821366402	2.3594861636417264	0.7918083118030693	0.686886117089162	2.414607936790847	0.4581362950181053	0.6890598830276417	2.563615991864884	0.10657181954159924	0.721304908795802	2.4119756963946197	0.014043066084890476	0.7403977332430343	2.437406323104871	-0.0010398532561105556	0.6980558697426636	2.622285419265364	0.03809026942790405	0.7301493818505613	2.2860561812534748	0.7964338128336486	0.8556069799577118	2.173496889489959	0.4792278185307328	0.8672111554656341	2.1033244883168773	0.13238068387466467	0.8595568177873315	1.9236845466136838	0.06542402190749057	0.8767175785430722	1.9477594579967603	0.062418748009400296	0.9346803081747787	2.1284618931495074	0.05618148825246101	0.8481278997200073	2.263757701029929	1.4299397709780672	0.7678204480420993	2.1840266360463363	1.6908191623902673	0.7477712028686658	2.098926020143004	1.544340576299967	0.7662804847795532	2.2806314868135065	1.338602222716448	0.5868202021004432	2.231978254436511	1.0390083107552692	0.5455255254954497	2.1198146921773278	0.8256453638232922	0.5291261725717501	2.315986966650488	1.3482811264122645	0.9577434062476087	2.3980749299301323	1.061070444149116	0.947029125875528	2.4413991508318382	0.8348204145276643	0.9599675679844473
368	12.266666666666667	2.306598569103193	0.8171801144234997	0.7759913100659648	2.3347282233481845	0.7922289060487797	0.6904428121998785	2.394817532566346	0.4602939631361675	0.689804170809505	2.5582765104391383	0.11105740053977113	0.7190128796986893	2.4119885087943094	0.015346008158817995	0.7440231634542311	2.436021377924249	-0.00022769327097398354	0.7017010963673073	2.6161845042167258	0.042463862397068765	0.7245752088925944	2.259386788873032	0.7962795256083743	0.8586966825380776	2.153292357899625	0.47877964690938707	0.8671873774467292	2.094478020152551	0.12864096170385228	0.8580306064735156	1.916028892693816	0.054758621240785704	0.8750733881806388	1.9438513126217971	0.05328731971056351	0.933055452034078	2.1211117484895103	0.05504823153666245	0.8467224433638019	2.2422443769583937	1.4298418397976143	0.774058015905573	2.16183746124682	1.6837499688009776	0.7539100968156931	2.0813576285856326	1.5451009490795455	0.7739321587497392	2.2579875778594483	1.3401223623324974	0.5931022325748471	2.2075456441167947	1.0417213685985591	0.5487323839152705	2.088871921282575	0.8309212574604576	0.535332529249915	2.293018761287957	1.3474393571946768	0.9638759451999288	2.377996276838681	1.0608082286591618	0.9505117545034314	2.4256786473255323	0.8350137268872544	0.9643397328392133
